<mxfile host="Electron" modified="2025-02-23T11:02:19.304Z" agent="Mozilla/5.0 (Windows NT 10.0; Win64; x64) AppleWebKit/537.36 (KHTML, like Gecko) draw.io/22.0.3 Chrome/114.0.5735.289 Electron/25.8.4 Safari/537.36" etag="J3o35vjznyU29K-5sauc" version="22.0.3" type="device">
  <diagram name="第 1 页" id="SlH0wSrKDDG5-ifnX5d5">
    <mxGraphModel dx="1114" dy="765" grid="1" gridSize="10" guides="1" tooltips="1" connect="1" arrows="1" fold="1" page="1" pageScale="1" pageWidth="827" pageHeight="1169" math="0" shadow="0">
      <root>
        <mxCell id="0" />
        <mxCell id="1" parent="0" />
        <mxCell id="CDjrTOzZmkwLz2QMd4qp-3" value="" style="edgeStyle=orthogonalEdgeStyle;rounded=0;orthogonalLoop=1;jettySize=auto;html=1;" edge="1" parent="1" source="CDjrTOzZmkwLz2QMd4qp-1" target="CDjrTOzZmkwLz2QMd4qp-2">
          <mxGeometry relative="1" as="geometry" />
        </mxCell>
        <mxCell id="CDjrTOzZmkwLz2QMd4qp-4" value="拟合高斯分布" style="edgeLabel;html=1;align=center;verticalAlign=middle;resizable=0;points=[];" vertex="1" connectable="0" parent="CDjrTOzZmkwLz2QMd4qp-3">
          <mxGeometry x="-0.0375" y="-4" relative="1" as="geometry">
            <mxPoint y="-24" as="offset" />
          </mxGeometry>
        </mxCell>
        <mxCell id="CDjrTOzZmkwLz2QMd4qp-1" value="ATL03" style="rounded=1;whiteSpace=wrap;html=1;" vertex="1" parent="1">
          <mxGeometry x="80" y="160" width="120" height="60" as="geometry" />
        </mxCell>
        <mxCell id="CDjrTOzZmkwLz2QMd4qp-6" value="" style="edgeStyle=orthogonalEdgeStyle;rounded=0;orthogonalLoop=1;jettySize=auto;html=1;" edge="1" parent="1" source="CDjrTOzZmkwLz2QMd4qp-2" target="CDjrTOzZmkwLz2QMd4qp-5">
          <mxGeometry relative="1" as="geometry" />
        </mxCell>
        <mxCell id="CDjrTOzZmkwLz2QMd4qp-2" value="获取海平面高度" style="rounded=1;whiteSpace=wrap;html=1;" vertex="1" parent="1">
          <mxGeometry x="320" y="160" width="120" height="60" as="geometry" />
        </mxCell>
        <mxCell id="CDjrTOzZmkwLz2QMd4qp-8" value="" style="edgeStyle=orthogonalEdgeStyle;rounded=0;orthogonalLoop=1;jettySize=auto;html=1;" edge="1" parent="1" source="CDjrTOzZmkwLz2QMd4qp-5" target="CDjrTOzZmkwLz2QMd4qp-7">
          <mxGeometry relative="1" as="geometry" />
        </mxCell>
        <mxCell id="CDjrTOzZmkwLz2QMd4qp-9" value="计算局部邻域距离" style="edgeLabel;html=1;align=center;verticalAlign=middle;resizable=0;points=[];" vertex="1" connectable="0" parent="CDjrTOzZmkwLz2QMd4qp-8">
          <mxGeometry x="-0.08" y="2" relative="1" as="geometry">
            <mxPoint y="-12" as="offset" />
          </mxGeometry>
        </mxCell>
        <mxCell id="CDjrTOzZmkwLz2QMd4qp-5" value="提取水下点" style="whiteSpace=wrap;html=1;rounded=1;" vertex="1" parent="1">
          <mxGeometry x="320" y="280" width="120" height="60" as="geometry" />
        </mxCell>
        <mxCell id="CDjrTOzZmkwLz2QMd4qp-12" value="" style="edgeStyle=orthogonalEdgeStyle;rounded=0;orthogonalLoop=1;jettySize=auto;html=1;" edge="1" parent="1" source="CDjrTOzZmkwLz2QMd4qp-7" target="CDjrTOzZmkwLz2QMd4qp-11">
          <mxGeometry relative="1" as="geometry" />
        </mxCell>
        <mxCell id="CDjrTOzZmkwLz2QMd4qp-13" value="几何校正模型" style="edgeLabel;html=1;align=center;verticalAlign=middle;resizable=0;points=[];" vertex="1" connectable="0" parent="CDjrTOzZmkwLz2QMd4qp-12">
          <mxGeometry x="-0.2333" y="3" relative="1" as="geometry">
            <mxPoint x="37" as="offset" />
          </mxGeometry>
        </mxCell>
        <mxCell id="CDjrTOzZmkwLz2QMd4qp-7" value="穿透直射点位" style="whiteSpace=wrap;html=1;rounded=1;" vertex="1" parent="1">
          <mxGeometry x="80" y="280" width="120" height="60" as="geometry" />
        </mxCell>
        <mxCell id="CDjrTOzZmkwLz2QMd4qp-15" style="edgeStyle=orthogonalEdgeStyle;rounded=0;orthogonalLoop=1;jettySize=auto;html=1;entryX=0;entryY=0.5;entryDx=0;entryDy=0;" edge="1" parent="1" source="CDjrTOzZmkwLz2QMd4qp-11" target="CDjrTOzZmkwLz2QMd4qp-14">
          <mxGeometry relative="1" as="geometry" />
        </mxCell>
        <mxCell id="CDjrTOzZmkwLz2QMd4qp-16" value="数据栅格化" style="edgeLabel;html=1;align=center;verticalAlign=middle;resizable=0;points=[];" vertex="1" connectable="0" parent="CDjrTOzZmkwLz2QMd4qp-15">
          <mxGeometry x="-0.2833" relative="1" as="geometry">
            <mxPoint x="17" y="-10" as="offset" />
          </mxGeometry>
        </mxCell>
        <mxCell id="CDjrTOzZmkwLz2QMd4qp-11" value="实际水下点位" style="whiteSpace=wrap;html=1;rounded=1;" vertex="1" parent="1">
          <mxGeometry x="80" y="400" width="120" height="60" as="geometry" />
        </mxCell>
        <mxCell id="CDjrTOzZmkwLz2QMd4qp-14" value="网格对应点位" style="whiteSpace=wrap;html=1;rounded=1;" vertex="1" parent="1">
          <mxGeometry x="320" y="400" width="120" height="60" as="geometry" />
        </mxCell>
      </root>
    </mxGraphModel>
  </diagram>
</mxfile>
